<?xml version="1.0" standalone="no"?>
<!DOCTYPE svg PUBLIC "-//W3C//DTD SVG 20010904//EN"
 "http://www.w3.org/TR/2001/REC-SVG-20010904/DTD/svg10.dtd">
<svg version="1.0" xmlns="http://www.w3.org/2000/svg"
 width="700.000000pt" height="700.000000pt" viewBox="0 0 700.000000 700.000000"
 preserveAspectRatio="xMidYMid meet">
<metadata>
Created by potrace 1.11, written by Peter Selinger 2001-2013
</metadata>
<g transform="translate(0.000000,700.000000) scale(0.100000,-0.100000)"
fill="#000000" stroke="none">
<path d="M3298 6995 c-1 -1 -48 -6 -102 -9 -55 -4 -102 -9 -105 -10 -3 -2 -37
-7 -76 -11 -38 -4 -72 -8 -76 -10 -3 -2 -28 -7 -55 -10 -27 -4 -52 -10 -56
-13 -3 -4 7 -47 24 -97 107 -318 48 -678 -155 -950 l-60 -80 47 -135 c121
-343 229 -670 291 -882 14 -49 36 -125 49 -170 44 -151 135 -501 182 -698 47
-197 134 -605 150 -695 2 -16 7 -37 9 -45 2 -8 7 -33 10 -56 3 -22 10 -55 15
-73 5 -17 9 -32 8 -34 0 -3 14 -99 18 -122 3 -11 7 -36 10 -55 2 -19 9 -57 14
-85 10 -52 19 -110 25 -160 3 -16 9 -59 15 -95 13 -77 18 -116 20 -150 2 -24
2 -24 10 4 5 16 12 54 15 85 3 31 8 65 10 76 3 11 7 38 10 60 14 96 17 114 30
190 13 75 17 95 30 178 3 17 13 68 21 112 9 44 18 94 21 110 19 113 107 532
144 685 12 47 22 92 24 100 18 86 129 507 189 715 96 333 226 735 334 1027 38
103 39 108 21 124 -52 47 -158 227 -199 336 -80 218 -81 484 -4 698 14 40 22
76 17 80 -4 5 -28 11 -53 15 -25 3 -56 8 -70 10 -52 10 -67 13 -130 19 -36 4
-78 9 -95 12 -35 5 -521 14 -527 9z"/>
<path d="M895 5833 c-260 -290 -484 -645 -629 -997 -21 -51 -21 -55 12 -62 69
-16 171 -48 221 -71 53 -24 170 -90 181 -102 3 -4 21 -18 41 -33 128 -95 252
-260 322 -428 55 -132 71 -220 72 -403 l1 -168 69 -55 c131 -104 149 -119 224
-184 215 -185 465 -437 631 -635 23 -27 52 -61 63 -75 175 -207 417 -575 559
-852 98 -189 248 -537 248 -574 0 -8 5 -14 11 -14 5 0 8 3 6 8 -3 4 -8 54 -12
112 -4 58 -8 112 -10 120 -2 8 -6 53 -10 100 -3 47 -8 96 -10 110 -5 37 -17
137 -30 260 -4 36 -8 76 -10 90 -2 14 -9 66 -16 115 -6 50 -13 99 -14 110 -14
97 -28 194 -30 215 -2 14 -13 81 -24 150 -12 69 -24 141 -27 160 -6 41 -22
134 -29 170 -3 14 -10 50 -15 80 -56 289 -54 279 -69 350 -6 25 -22 99 -36
165 -34 157 -58 259 -102 430 -19 77 -37 147 -39 155 -73 298 -218 777 -340
1126 -42 120 -78 228 -81 240 -4 19 -11 20 -134 18 -184 -3 -325 26 -479 99
-142 66 -289 184 -380 304 l-48 63 -87 -97z"/>
<path d="M5985 5883 c-104 -137 -273 -275 -395 -323 -19 -7 -39 -17 -45 -21
-16 -11 -145 -48 -225 -63 -42 -8 -126 -13 -197 -12 l-123 2 -15 -41 c-39
-105 -87 -241 -89 -250 -4 -19 -37 -120 -46 -140 -9 -21 -74 -227 -135 -430
-36 -119 -172 -612 -179 -650 -2 -11 -9 -40 -15 -65 -7 -25 -14 -55 -16 -67
-3 -12 -17 -71 -31 -130 -14 -60 -28 -119 -30 -133 -3 -13 -14 -62 -25 -109
-11 -47 -22 -101 -25 -120 -3 -20 -7 -38 -9 -41 -3 -5 -84 -423 -90 -465 -12
-81 -46 -286 -49 -297 -3 -7 -7 -35 -10 -63 -3 -27 -8 -61 -10 -75 -3 -14 -7
-43 -10 -65 -2 -22 -12 -87 -20 -145 -9 -58 -18 -127 -21 -155 -3 -27 -8 -66
-10 -85 -5 -39 -12 -101 -20 -175 -3 -27 -8 -66 -10 -85 -7 -60 -14 -132 -20
-200 -13 -143 -16 -177 -21 -225 -3 -27 -4 -48 -1 -45 3 3 20 43 37 90 18 47
43 109 56 138 13 29 24 54 24 56 0 5 84 185 110 236 299 593 777 1187 1315
1635 33 28 62 52 65 55 3 3 46 38 97 78 50 40 93 78 95 84 3 7 1 32 -3 57 -10
61 -3 226 11 298 83 412 386 731 787 828 l71 17 -35 87 c-85 206 -255 503
-396 694 -50 69 -188 240 -207 257 -3 3 -26 28 -52 57 l-48 52 -35 -46z"/>
<path d="M729 2929 c-130 -114 -361 -210 -544 -225 -38 -4 -74 -10 -78 -14
-11 -9 40 -199 92 -345 330 -929 1011 -1661 1915 -2057 77 -33 301 -118 313
-118 4 0 0 39 -13 123 -3 20 -7 47 -8 60 -2 12 -6 36 -9 52 -4 17 -9 41 -11
55 -73 400 -248 848 -482 1230 -223 365 -478 673 -825 995 -134 124 -302 265
-316 265 -6 0 -21 -9 -34 -21z"/>
<path d="M6113 2851 c-213 -178 -427 -387 -578 -565 -28 -32 -55 -64 -61 -70
-76 -80 -332 -444 -409 -581 -80 -142 -106 -191 -158 -298 -31 -65 -57 -120
-57 -123 0 -3 -7 -20 -15 -37 -92 -202 -204 -591 -239 -832 -16 -113 -23 -170
-21 -173 1 -1 51 15 111 37 427 154 822 391 1153 691 106 95 250 242 306 310
21 25 40 47 44 50 17 12 174 225 233 315 206 315 368 672 457 1012 l29 110
-52 2 c-183 8 -419 99 -570 220 -21 17 -43 31 -47 31 -5 0 -62 -44 -126 -99z"/>
</g>
</svg>
